<svg xmlns="http://www.w3.org/2000/svg" width="260" height="180" viewBox="0 0 260 180" fill="none">
  <rect width="260" height="180" rx="22" fill="#f7fbfb"/>
  <ellipse cx="126" cy="142" rx="78" ry="18" fill="#d4e8e8"/>
  <ellipse cx="126" cy="134" rx="58" ry="14" fill="#fff"/>
  <path d="M89 124h76l-11 29H101z" fill="#e9f5f4"/>
  <path d="M96 124h62" stroke="#006b68" stroke-width="7" stroke-linecap="round"/>
  <path d="M101 111c8-19 42-25 55 0 5 10-2 17-13 17h-29c-11 0-18-7-13-17z" fill="#58a7a3"/>
  <circle cx="114" cy="96" r="10" fill="#f2d8bc"/>
  <circle cx="139" cy="93" r="9" fill="#e85235"/>
  <path d="M178 72h24v42c0 13-10 24-24 24s-24-11-24-24V72z" fill="#fff" stroke="#006b68" stroke-width="7" stroke-linejoin="round"/>
  <path d="M202 85h9c8 0 13 6 13 14s-5 14-13 14h-9" stroke="#006b68" stroke-width="7" stroke-linecap="round"/>
  <path d="M162 62c-5-8 6-12 1-20M179 62c-5-8 6-12 1-20" stroke="#87bfbc" stroke-width="5" stroke-linecap="round"/>
  <path d="M47 126c20-9 38-9 58 0" stroke="#87bfbc" stroke-width="6" stroke-linecap="round"/>
</svg>
